<?xml version="1.0" encoding="utf-8"?>
<!-- Generator: Adobe Illustrator 27.6.1, SVG Export Plug-In . SVG Version: 6.00 Build 0)  -->
<svg version="1.1" id="Layer_1" xmlns="http://www.w3.org/2000/svg" xmlns:xlink="http://www.w3.org/1999/xlink" x="0px" y="0px"
	 viewBox="0 0 1024 1024" style="enable-background:new 0 0 1024 1024;" xml:space="preserve">
<g transform="translate(0.000000,1024.000000) scale(0.100000,-0.100000)">
	<path d="M4820,10160c11-7,5-10-23-10c-47,0-222-26-307-46c-279-64-550-169-750-289c-30-18-91-54-135-80c-142-85-343-247-515-416
		c-204-201-452-574-581-875c-52-124-127-362-161-519l-22-100l-3-2665c-4-2937-8-2733,57-2985c93-360,232-647,474-985
		c153-214,393-448,641-625c169-121,492-287,665-341c47-15,88-32,92-38s10-7,14-3s12,3,18-2c11-9,76-28,188-56c31-8,122-24,203-36
		c132-19,178-20,483-16c292,4,353,7,457,26c105,19,270,60,315,78c8,4,17,7,20,8s12,5,20,8c8,4,56,21,105,37c158,54,511,238,650,338
		c140,102,395,332,496,447c166,190,376,524,479,762c110,256,190,590,207,870c3,56,10,103,15,103c4,0,8,1064,8,2365
		c0,1570-3,2365-10,2365c-5,0-10,24-10,53c0,61-25,279-40,357c-46,230-137,511-210,650c-214,406-356,603-606,841
		c-230,219-357,310-704,501c-210,116-616,238-882,264c-38,4-68,11-68,15c0,5-134,9-297,9C4907,10170,4810,10166,4820,10160z
		 M5383,9001c290-51,496-143,754-338c245-184,375-367,548-768c44-103,75-281,82-481l6-162l-114-86c-63-47-161-125-219-172
		s-138-112-178-143c-41-31-100-76-132-101s-123-97-202-161c-79-63-195-155-258-205c-63-49-169-133-235-187s-174-140-240-190
		s-183-143-261-207c-77-63-184-149-238-190c-100-76-411-324-455-361c-13-11-51-41-85-67c-34-25-146-114-251-197
		c-104-83-237-188-295-233s-121-95-140-111l-35-29l5,1472l5,1471l22,110c19,93,34,151,70,268c3,9,9,17,14,17s9,7,9,15
		c0,27,110,236,176,335c76,115,171,226,256,298c72,61,226,171,278,197c18,10,40,24,48,31c13,13,27,18,45,15c4,0,7,3,7,8s26,19,58,31
		c31,13,76,31,99,42c68,30,221,67,360,88C5044,9034,5213,9031,5383,9001z M6767,4045c-4-1499-1-1420-52-1617c-17-66-16-63-102-253
		c-160-351-401-604-747-785c-155-81-311-129-557-169c-96-16-331-14-435,4c-227,39-347,76-514,160c-256,128-485,330-636,561
		c-60,92-186,343-178,356c3,4,1,8-4,8c-14,0-50,132-77,281c-21,115-25,165-25,349c0,204,1,216,20,228c11,6,91,69,177,139
		c87,70,242,193,344,273s252,199,335,266c82,66,190,152,240,190s196,153,325,256s279,222,333,265c55,43,118,94,141,113
		s88,71,145,115s185,145,284,224c100,80,222,176,273,215c50,39,178,141,285,226c106,86,241,193,300,238c59,46,111,88,115,95
		C6769,5802,6771,5547,6767,4045z"/>
</g>
</svg>
