<?xml version="1.0" encoding="utf-8"?>
<!-- Generator: Adobe Illustrator 26.3.1, SVG Export Plug-In . SVG Version: 6.00 Build 0)  -->
<svg version="1.1" id="Layer_1" xmlns="http://www.w3.org/2000/svg" xmlns:xlink="http://www.w3.org/1999/xlink" x="0px" y="0px"
	 viewBox="0 0 2000 797" style="enable-background:new 0 0 2000 797;" xml:space="preserve">
<style type="text/css">
	.st0{fill:#FFFFFF;}
</style>
<path d="M1000,5.1c202.6,0,405.3,0,607.9,0c31,0,61.3,4.6,91.4,11.5c28.2,6.5,55,16.8,80.7,29.9c28.4,14.5,54.9,32,78.6,53.5
	c11.2,10.2,22.5,20.3,32.8,31.2c18.3,19.4,35.2,40.1,48.6,63.3c6.9,12,14.2,23.8,20.1,36.3c6.9,14.6,13.1,29.5,18.2,44.8
	c5,15.1,8.9,30.7,11.9,46.3c2.6,13.4,4,27.2,4.5,40.9c0.7,22.1,0.6,44.3,0,66.5c-0.3,12.7-1.2,25.6-3.5,38c-3.2,17.1-8,33.9-12,50.9
	c-3.6,15.1-9.8,29.2-16,43.4c-9.8,22.5-22.3,43.3-36.6,63.1c-8.7,12.1-18.7,23.2-28.5,34.4c-17,19.3-36.5,36.1-56.8,51.8
	c-38.5,30-80.6,52.8-128.2,64.9c-43,11-86.7,16-131.2,16c-393.1-0.1-786.2,0-1179.3-0.3c-19,0-38.1-2.5-57.1-4.9
	c-17.9-2.3-36-4.9-53.5-9.2c-15.6-3.8-30.8-9.7-45.9-15.4c-30.3-11.4-57.7-28.1-82.8-48.1c-18.5-14.7-36.4-30.2-53.4-46.6
	c-11.5-11.1-22-23.5-31.4-36.4c-11.8-16.2-22.9-33.1-32.4-50.8c-8.6-15.9-15.6-32.9-21.6-50.1c-6.2-17.8-11.3-36.2-14.8-54.7
	c-3-15.9-3.8-32.2-4.4-48.4c-0.7-20.1-0.6-40.3,0-60.5c0.3-12.2,1.3-24.5,3.6-36.5c3.2-16.8,8-33.3,12-49.9
	c3.6-14.9,9.7-28.9,15.9-42.9c9.8-22.3,22.2-43.1,36.1-62.9c8.2-11.6,17.3-22.7,26.9-33.3c11.1-12.3,22.9-24,35-35.4
	c15.7-14.8,33-27.6,51-39.4c30.9-20.3,64.2-35.5,99.6-45.9c21.2-6.2,42.8-10.8,64.9-12.6c17.7-1.5,35.5-2.8,53.3-2.8
	C602.4,5,801.2,5.1,1000,5.1z M1019,398.5c0,118.5,0,236.9-0.1,355.4c0,5.2,1.4,6.1,6.3,6.1c184.5-0.1,368.9-0.1,553.4-0.2
	c13.1,0,26.3-0.9,39.3-2.2c24.6-2.4,49.2-5.4,72.9-12.8c17-5.3,34.4-10.2,50.6-17.5c47.6-21.2,88.1-52.6,123.9-90.1
	c25-26.2,45.4-55.7,60.6-88.7c8.7-18.8,15.3-38.3,20.6-58.3c6.7-25.1,9.2-50.5,8.5-76.5c-0.5-17.3,0.4-34.7-0.3-52
	c-0.4-11.6-1.7-23.2-4-34.5c-2.7-13.8-6.3-27.4-10.6-40.8c-8-24.8-18.9-48.5-32.9-70.5c-13.4-21.2-28.7-40.9-45.9-59.3
	c-17.9-19-37.2-36.1-58.2-51.3c-31-22.4-64.7-39.5-101.3-50.9c-35.6-11.1-72-17.3-109.3-17.4c-189.1-0.1-378.3,0-567.4-0.2
	c-4.9,0-6.3,1-6.3,6.2C1019,161.6,1019,280,1019,398.5z M954.3,399.7c-0.3-3.8-0.5-10.3-1.4-16.7c-5.1-34.3-21.6-61.2-52.4-78.3
	c-23.1-12.8-48.2-16-74-12.6c-33,4.4-59.2,20.1-76.9,48.8c-14.1,22.9-18.1,48.1-15.5,74.4c3.4,34.4,18.6,62.2,48.3,81
	c22.4,14.2,47.2,18.3,73.2,16.2c23.7-2,45.1-9.9,63-25.9C943.8,464.2,953.9,435.3,954.3,399.7z M629.4,428.7
	c6.6-2.7,13.1-4.6,18.9-7.7c35.8-18.9,38.5-62.5,26.9-87.9c-11.9-26.1-34-37.1-61.4-38c-25.8-0.8-51.6-0.3-77.5-0.3
	c-7.1,0-7.1,0-7.1,7.3c0,65.8,0,131.6,0,197.4c0,1.7,0.1,3.3,0,5c-0.2,3.3,1.5,4.5,4.5,4.4c4-0.1,8-0.2,12,0.1
	c4.8,0.4,6.3-1.5,6.3-6.3c-0.2-22.5,0-45-0.2-67.5c0-4.3,1.3-5.2,5.3-5.2c13.7,0.2,27.3,0.2,41,0c3.4-0.1,5.4,1.1,7.3,3.8
	c14.3,20.3,29.5,39.9,42.9,60.8c7.2,11.2,15.3,17,28.6,14.4c2.2-0.4,4.4-0.9,6.6-1.3c-0.8-2-1.6-4-2.5-6c-0.5-1-1.3-1.9-2-2.9
	C662.5,475.4,645.9,452.1,629.4,428.7z M330.1,401.8c0,33.5,0,67,0,100.4c0,6.7,0,6.7,6.5,6.7c37,0,74,0,110.9,0
	c13.5,0,13.5,0,13.5-13.7c0-7.5,0-7.5-7.4-7.5c-32,0-64,0-95.9,0c-2.6,0-5.2,0.6-5.2-3.7c0.2-23.3,0.1-46.6,0-70
	c0-2.9,1.2-3.7,3.9-3.6c4.7,0.1,9.3,0,14,0c24.7,0,49.3-0.1,74,0.1c4.4,0,6.1-1.5,5.7-5.8c-0.2-3.1-0.3-6.3,0-9.5
	c0.4-4.9-1.6-6.3-6.4-6.2c-28.8,0.2-57.6,0-86.5,0.2c-3.7,0-4.8-0.9-4.8-4.7c0.2-21.2,0.2-42.3,0-63.5c0-4,1.2-5,5.1-5
	c28.5,0.2,57,0.1,85.5,0.1c14.9,0,14.9,0,14.9-15c0-6.2-0.1-6.3-6.6-6.3c-38.3,0-76.6,0-114.9,0c-6.2,0-6.3,0.1-6.3,6.5
	C330.1,334.9,330.1,368.3,330.1,401.8z M146.8,487.5c1.2-2.1,1.8-3.2,2.6-4.3c36.7-54.9,73.4-109.9,110.4-164.6
	c3.4-5,4.8-9.9,4.5-15.8c-0.3-7.9-0.1-8-7.8-8c-41.1,0-82.3,0-123.4,0c-14,0-14,0-14,14.3c0,7.4,0,7.4,7.5,7.4c34,0,68,0,102,0
	c1.4,0,2.8,0.4,4.3,0.6c-0.6,1.3-1.1,2.6-1.8,3.9c-0.4,0.7-0.9,1.4-1.3,2.1c-36.2,54.1-72.2,108.2-108.6,162.2
	c-3.5,5.2-5.4,10.3-5,16.6c0.4,6.8,0.1,6.9,7.1,6.9c43,0,86,0,128.9,0c14.9,0,14.9,0,14.8-14.9c0-6.5-0.1-6.6-6.8-6.6
	c-35.5,0-71,0-106.5,0C151.8,487.5,149.9,487.5,146.8,487.5z"/>
<path class="st0" d="M1019,398.5c0-118.5,0-236.9-0.1-355.4c0-5.2,1.4-6.2,6.3-6.2c189.1,0.1,378.3,0.1,567.4,0.2
	c37.3,0,73.7,6.3,109.3,17.4c36.6,11.4,70.3,28.5,101.3,50.9c21,15.2,40.3,32.3,58.2,51.3c17.3,18.3,32.5,38.1,45.9,59.3
	c14,22,24.9,45.7,32.9,70.5c4.3,13.4,7.9,27,10.6,40.8c2.3,11.3,3.5,23,4,34.5c0.6,17.3-0.3,34.7,0.3,52c0.8,25.9-1.7,51.4-8.5,76.5
	c-5.4,20-11.9,39.5-20.6,58.3c-15.3,33-35.6,62.5-60.6,88.7c-35.8,37.5-76.4,68.9-123.9,90.1c-16.2,7.2-33.5,12.2-50.6,17.5
	c-23.7,7.4-48.3,10.4-72.9,12.8c-13.1,1.3-26.2,2.2-39.3,2.2c-184.5,0.1-368.9,0.1-553.4,0.2c-4.9,0-6.3-1-6.3-6.1
	C1019,635.4,1019,517,1019,398.5z M1467.7,406.5c-1.3-1.9-2.1-3.1-3-4.3c-24.2-36.5-48.5-72.9-72.7-109.4c-3-4.5-6.5-7.6-12-7.8
	c-5.5-0.2-11-0.3-16.5,0c-6.8,0.4-10.5,3.8-11.9,10.6c-0.5,2.3-0.6,4.6-0.6,6.9c0,62.6,0,125.3,0,187.9c0,4.5-0.1,9,0,13.5
	c0.2,9.9,4.8,14.6,14.7,15c3.5,0.1,7,0,10.5,0c13,0,17.4-4.4,17.4-17.3c0-41.3,0-82.6,0-124c0-1.7,0-3.4,0-5.1
	c1.9,1.1,2.7,2.3,3.6,3.5c15.6,23.4,31.8,46.4,46.6,70.4c6.8,11,14.9,15.4,27.4,14.2c6.9-0.7,12.2-2.6,16.2-8.8
	c16.5-25.2,33.3-50.2,50-75.3c1.1-1.6,2.2-3.1,3.2-4.7c0.3,0.1,0.6,0.2,0.9,0.4c0,1.6,0,3.2,0,4.8c0,30,0,60,0,90
	c0,12.2,0,24.3,0,36.5c0,10.7,4.8,15.4,15.6,15.5c3.2,0,6.3,0,9.5,0c12.8,0,17-4.2,17-17c0-66.6,0-133.3,0-199.9c0-1.2,0-2.3,0-3.5
	c-0.5-8.7-5.3-13.4-13.9-13.6c-4.7-0.1-9.3-0.2-14,0c-4.9,0.2-8.9,1.8-11.8,6.2c-14.5,22.1-29.2,44.1-43.9,66.2
	C1489.6,373.5,1478.8,389.7,1467.7,406.5z M1838.4,418.1c0-28.5,0.1-57-0.1-85.4c-0.1-5.2,1.5-6.3,6.4-6.3c17,0.3,34,0.2,51,0.1
	c9.9-0.1,14.8-4.1,15.3-12.6c0.3-5.5,0.3-11,0-16.5c-0.5-8.1-4.6-11.9-12.7-12.5c-1.7-0.1-3.3-0.1-5-0.1c-49.8,0-99.6,0-149.4,0
	c-2,0-4-0.1-6,0c-8.7,0.3-13.5,5-13.9,13.7c-0.1,1.8,0,3.7,0,5.5c0,20.2,2.3,22.5,22.2,22.5c14.7,0,29.3,0.2,44-0.1
	c4.8-0.1,6.1,1.1,6.1,6c-0.2,56-0.1,111.9-0.1,167.9c0,1.2,0,2.3,0,3.5c0.2,9.9,4.7,14.8,14.6,15.2c3.7,0.1,7.3,0,11,0
	c12.3,0,16.8-4.5,16.8-16.9C1838.4,474.1,1838.4,446.1,1838.4,418.1z M1063.2,402.2c0,2.8,0,5.7,0,8.5c0,30.8,0,61.6,0,92.4
	c0,11,4.8,15.8,15.8,15.9c2.8,0,5.7,0,8.5,0c35.8,0,71.6,0,107.4,0c13,0,17.2-4.3,17.2-17.4c0-2.3,0-4.7,0-7
	c0-13-4.1-17.1-16.9-17.1c-27.8,0-55.6-0.1-83.5,0.1c-4.8,0-6-1.2-6-6c0.2-56.3,0.1-112.6,0.1-168.9c0-1.5,0.1-3,0-4.5
	c-0.9-8.8-5.4-13.1-14.3-13.3c-3.7-0.1-7.3,0-11,0c-13,0-17.3,4.3-17.3,17.4C1063.1,335.5,1063.2,368.8,1063.2,402.2z M1291,402.5
	c0-34.1,0-68.3,0-102.4c0-9.2-4.3-14.6-12.4-15.1c-6-0.4-12-0.3-18,0c-7,0.5-10.4,3.9-11.6,10.8c-0.4,2.3-0.5,4.6-0.5,7
	c0,66.1,0,132.3,0,198.4c0,1.2,0,2.3,0,3.5c0.4,9.2,5.1,14,14.5,14.3c3.8,0.1,7.7,0,11.5,0c12.2,0,16.5-4.4,16.5-16.5
	C1291,469.1,1291,435.8,1291,402.5z M1643.9,402c0,34,0,68,0,101.9c0,10.2,4.8,14.9,15,15c3.2,0,6.3,0,9.5,0c13.8,0,18-4.1,18-17.7
	c0-66.1,0-132.3,0-198.4c0-1.7,0.1-3.3-0.1-5c-0.9-8.8-5.1-12.7-14-13c-4-0.1-8,0-12,0c-12,0-16.4,4.5-16.4,16.7
	C1643.9,335,1643.9,368.5,1643.9,402z"/>
<path class="st0" d="M954.3,399.7c-0.5,35.6-10.5,64.5-35.7,86.9c-17.9,16-39.3,23.9-63,25.9c-26,2.2-50.9-2-73.2-16.2
	c-29.6-18.8-44.9-46.6-48.3-81c-2.6-26.3,1.4-51.5,15.5-74.4c17.7-28.7,44-44.3,76.9-48.8c25.8-3.5,50.9-0.3,74,12.6
	c30.7,17.1,47.2,44,52.4,78.3C953.9,389.4,954,395.9,954.3,399.7z M843.8,490.5c51.9,0,87.9-35.9,88-88
	c0.1-52.5-35.6-88.8-87.6-88.9c-52.1-0.1-88,36-88,88.5C756.2,454.2,792.1,490.4,843.8,490.5z"/>
<path class="st0" d="M629.4,428.7c16.5,23.3,33.1,46.7,49.6,70c0.7,1,1.5,1.8,2,2.9c0.9,2,1.7,4,2.5,6c-2.2,0.4-4.4,0.9-6.6,1.3
	c-13.3,2.6-21.4-3.1-28.6-14.4c-13.4-20.8-28.6-40.5-42.9-60.8c-1.9-2.7-3.9-3.8-7.3-3.8c-13.7,0.2-27.3,0.2-41,0
	c-4.1-0.1-5.4,0.9-5.3,5.2c0.2,22.5,0,45,0.2,67.5c0,4.8-1.4,6.7-6.3,6.3c-4-0.3-8-0.1-12-0.1c-3.1,0-4.7-1.2-4.5-4.4
	c0.1-1.7,0-3.3,0-5c0-65.8,0-131.6,0-197.4c0-7.3,0-7.3,7.1-7.3c25.8,0,51.7-0.5,77.5,0.3c27.4,0.9,49.5,11.9,61.4,38
	c11.6,25.4,8.9,68.9-26.9,87.9C642.4,424.1,636,426.1,629.4,428.7z M551.9,362.2c0,14,0.1,28,0,42c0,3,0.5,4.5,4,4.4
	c18.3-0.2,36.6,0.3,54.9-0.2c33.8-0.9,52.6-24.5,46.2-57.4c-3.7-19.1-20-33-41.6-33.9c-19.9-0.8-39.9-0.4-59.9-0.7
	c-3.4,0-3.7,1.5-3.7,4.2C551.9,334.5,551.9,348.3,551.9,362.2z"/>
<path class="st0" d="M330.1,401.8c0-33.5,0-67,0-100.4c0-6.5,0.1-6.5,6.3-6.5c38.3,0,76.6,0,114.9,0c6.4,0,6.5,0.1,6.6,6.3
	c0.1,15,0.1,15-14.9,15c-28.5,0-57,0.1-85.5-0.1c-3.9,0-5.1,1-5.1,5c0.2,21.2,0.2,42.3,0,63.5c0,3.8,1.1,4.7,4.8,4.7
	c28.8-0.1,57.6,0,86.5-0.2c4.8,0,6.8,1.4,6.4,6.2c-0.3,3.1-0.3,6.3,0,9.5c0.3,4.3-1.4,5.8-5.7,5.8c-24.7-0.2-49.3-0.1-74-0.1
	c-4.7,0-9.3,0.1-14,0c-2.7-0.1-3.9,0.7-3.9,3.6c0.1,23.3,0.1,46.6,0,70c0,4.4,2.6,3.7,5.2,3.7c32,0,64,0,95.9,0c7.4,0,7.4,0,7.4,7.5
	c0,13.7,0,13.7-13.5,13.7c-37,0-74,0-110.9,0c-6.5,0-6.5,0-6.5-6.7C330.1,468.8,330.1,435.3,330.1,401.8z"/>
<path class="st0" d="M146.8,487.5c3,0,5,0,7,0c35.5,0,71,0,106.5,0c6.7,0,6.8,0.1,6.8,6.6c0.1,14.9,0.1,14.9-14.8,14.9
	c-43,0-86,0-128.9,0c-7,0-6.7-0.1-7.1-6.9c-0.4-6.3,1.5-11.4,5-16.6c36.3-54,72.4-108.1,108.6-162.2c0.5-0.7,1-1.4,1.3-2.1
	c0.6-1.3,1.2-2.6,1.8-3.9c-1.4-0.2-2.8-0.6-4.3-0.6c-34,0-68,0-102,0c-7.5,0-7.5,0-7.5-7.4c0-14.3,0-14.3,14-14.3
	c41.1,0,82.3,0,123.4,0c7.7,0,7.4,0,7.8,8c0.2,5.9-1.1,10.7-4.5,15.8c-36.9,54.8-73.6,109.7-110.4,164.6
	C148.7,484.3,148.1,485.4,146.8,487.5z"/>
<path d="M1467.7,406.5c11.1-16.7,21.9-32.9,32.7-49.1c14.6-22.1,29.3-44.1,43.9-66.2c2.9-4.4,6.9-6,11.8-6.2c4.7-0.2,9.3-0.1,14,0
	c8.7,0.2,13.5,5,13.9,13.6c0.1,1.2,0,2.3,0,3.5c0,66.6,0,133.3,0,199.9c0,12.8-4.2,17-17,17c-3.2,0-6.3,0-9.5,0
	c-10.8-0.1-15.6-4.8-15.6-15.5c0-12.2,0-24.3,0-36.5c0-30,0-60,0-90c0-1.6,0-3.2,0-4.8c-0.3-0.1-0.6-0.2-0.9-0.4
	c-1.1,1.6-2.2,3.1-3.2,4.7c-16.7,25.1-33.6,50-50,75.3c-4,6.2-9.2,8.1-16.2,8.8c-12.5,1.2-20.6-3.1-27.4-14.2
	c-14.8-23.9-31-47-46.6-70.4c-0.8-1.2-1.7-2.4-3.6-3.5c0,1.7,0,3.4,0,5.1c0,41.3,0,82.6,0,124c0,12.9-4.4,17.3-17.4,17.3
	c-3.5,0-7,0.1-10.5,0c-9.9-0.3-14.6-5.1-14.7-15c-0.1-4.5,0-9,0-13.5c0-62.6,0-125.3,0-187.9c0-2.3,0.1-4.7,0.6-6.9
	c1.4-6.8,5.1-10.2,11.9-10.6c5.5-0.3,11-0.2,16.5,0c5.5,0.2,9,3.3,12,7.8c24.1,36.5,48.4,72.9,72.7,109.4
	C1465.6,403.4,1466.4,404.6,1467.7,406.5z"/>
<path d="M1838.4,418.1c0,28,0,56,0,83.9c0,12.4-4.5,16.9-16.8,16.9c-3.7,0-7.3,0.1-11,0c-9.8-0.4-14.4-5.2-14.6-15.2
	c0-1.2,0-2.3,0-3.5c0-56-0.1-111.9,0.1-167.9c0-4.9-1.3-6.1-6.1-6c-14.7,0.3-29.3,0.1-44,0.1c-19.9,0-22.2-2.3-22.2-22.5
	c0-1.8-0.1-3.7,0-5.5c0.5-8.7,5.3-13.4,13.9-13.7c2-0.1,4,0,6,0c49.8,0,99.6,0,149.4,0c1.7,0,3.3-0.1,5,0.1
	c8.1,0.6,12.2,4.4,12.7,12.5c0.3,5.5,0.3,11,0,16.5c-0.5,8.6-5.4,12.6-15.3,12.6c-17,0.1-34,0.2-51-0.1c-4.9-0.1-6.5,1-6.4,6.3
	C1838.6,361.1,1838.4,389.6,1838.4,418.1z"/>
<path d="M1063.2,402.2c0-33.3,0-66.6,0-99.9c0-13.1,4.3-17.4,17.3-17.4c3.7,0,7.3-0.1,11,0c8.9,0.2,13.5,4.4,14.3,13.3
	c0.1,1.5,0,3,0,4.5c0,56.3,0.1,112.6-0.1,168.9c0,4.8,1.2,6.1,6,6c27.8-0.2,55.6-0.1,83.5-0.1c12.9,0,16.9,4.1,16.9,17.1
	c0,2.3,0,4.7,0,7c0,13.2-4.2,17.4-17.2,17.4c-35.8,0-71.6,0-107.4,0c-2.8,0-5.7,0-8.5,0c-11-0.1-15.8-4.9-15.8-15.9
	c0-30.8,0-61.6,0-92.4C1063.2,407.8,1063.2,405,1063.2,402.2z"/>
<path d="M1291,402.5c0,33.3,0,66.6,0,99.9c0,12.1-4.4,16.5-16.5,16.5c-3.8,0-7.7,0.1-11.5,0c-9.3-0.3-14.1-5-14.5-14.3
	c0-1.2,0-2.3,0-3.5c0-66.1,0-132.3,0-198.4c0-2.3,0.1-4.7,0.5-7c1.2-6.9,4.7-10.3,11.6-10.8c6-0.4,12-0.4,18,0
	c8.1,0.5,12.4,5.8,12.4,15.1C1291,334.2,1291,368.4,1291,402.5z"/>
<path d="M1643.9,402c0-33.5,0-67,0-100.4c0-12.1,4.5-16.7,16.4-16.7c4,0,8-0.1,12,0c8.8,0.2,13.1,4.2,14,13c0.2,1.7,0.1,3.3,0.1,5
	c0,66.1,0,132.3,0,198.4c0,13.6-4.2,17.7-18,17.7c-3.2,0-6.3,0-9.5,0c-10.2-0.1-15-4.8-15-15C1643.9,469.9,1643.9,436,1643.9,402z"
	/>
<path d="M843.8,490.5c-51.7,0-87.6-36.3-87.6-88.5c0-52.5,35.9-88.6,88-88.5c52,0.1,87.8,36.4,87.6,88.9
	C931.7,454.5,895.7,490.5,843.8,490.5z"/>
<path d="M551.9,362.2c0-13.8,0-27.6,0-41.5c0-2.7,0.3-4.3,3.7-4.2c20,0.3,40-0.2,59.9,0.7c21.6,0.9,37.9,14.8,41.6,33.9
	c6.3,32.9-12.5,56.5-46.2,57.4c-18.3,0.5-36.6,0-54.9,0.2c-3.5,0-4-1.4-4-4.4C551.9,390.1,551.9,376.1,551.9,362.2z"/>
</svg>
